<svg width="33" height="23" viewBox="0 0 33 23" fill="none" xmlns="http://www.w3.org/2000/svg">
<g clip-path="url(#clip0_301_1665)">
<path d="M20 15.7C19.3 15.7 18.7 16.3 18.7 17V20H2.7V2.7H18.7V5.7C18.6 6.4 19.2 7 20 7C20.8 7 21.3 6.4 21.3 5.7V1.3C21.3 0.6 20.7 0 20 0H1.3C0.6 0 0 0.6 0 1.3V21.3C0 22 0.6 22.6 1.3 22.6H20C20.7 22.6 21.3 22 21.3 21.3V17C21.3 16.3 20.7 15.7 20 15.7Z" fill="#00AEA4"/>
<path d="M32 10.4L26.4 4.79999C25.9 4.29999 25 4.29999 24.5 4.79999C24 5.29999 24 6.19999 24.5 6.69999L27.8 9.99999H15.2C14.5 9.99999 13.9 10.6 13.9 11.3C13.9 12 14.5 12.6 15.2 12.6H27.8L24.6 16C24.3 16.3 24.2 16.6 24.2 17C24.2 17.3 24.3 17.7 24.6 18C25.1 18.5 26 18.5 26.5 18L32.1 12.4C32.5 11.8 32.5 10.9 32 10.4Z" fill="#00AEA4"/>
</g>
<defs>
<clipPath id="clip0_301_1665">
<rect width="32.4" height="22.7" fill="white"/>
</clipPath>
</defs>
</svg>
