<svg width="24" height="24" viewBox="0 0 24 24" fill="none" xmlns="http://www.w3.org/2000/svg">
<path fill-rule="evenodd" clip-rule="evenodd" d="M13.5643 2.57364C13.9412 2.42041 14.3733 2.51078 14.6572 2.8022L22.7163 11.0749C23.0874 11.4557 23.0955 12.0604 22.7347 12.4511L14.6756 21.1784C14.3963 21.4809 13.9601 21.5813 13.5767 21.4313C13.1933 21.2814 12.9409 20.9117 12.9409 20.5V16.0313C11.6071 15.908 10.2035 15.9987 8.72539 16.3123C7.18231 16.6397 5.19649 18.0942 2.7736 21.0518C2.49402 21.393 2.02384 21.5108 1.61643 21.3415C1.20901 21.1723 0.960628 20.7561 1.00513 20.3172C1.36712 16.7471 2.73925 13.7239 5.13349 11.2976C7.30796 9.09404 9.92424 7.865 12.9409 7.62623V3.5C12.9409 3.09316 13.1874 2.72687 13.5643 2.57364ZM14.9409 5.95957V8.5835C14.9409 9.1327 14.498 9.57913 13.9488 9.58347C11.0384 9.60648 8.5933 10.6389 6.55707 12.7024C5.3221 13.9539 4.39883 15.3901 3.78988 17.022C5.34194 15.589 6.84823 14.6661 8.31027 14.3559C10.3164 13.9302 12.2499 13.8613 14.1025 14.1646C14.586 14.2438 14.9409 14.6616 14.9409 15.1515V17.9431L20.6219 11.7911L14.9409 5.95957Z" fill="currentColor"/>
</svg>
