<svg width="24" height="24" viewBox="0 0 24 24" fill="none" xmlns="http://www.w3.org/2000/svg">
<path fill-rule="evenodd" clip-rule="evenodd" d="M19.2929 2.79289C19.6834 2.40237 20.3166 2.40237 20.7071 2.79289L22.7071 4.79289C23.0976 5.18342 23.0976 5.81658 22.7071 6.20711L20.7071 8.20711C20.3166 8.59763 19.6834 8.59763 19.2929 8.20711C18.9024 7.81658 18.9024 7.18342 19.2929 6.79289L19.5858 6.50003L18.5 6.50005C15.4624 6.50005 13 8.96248 13 12C13 15.0376 15.4624 17.5 18.5 17.5L19.5858 17.5L19.2929 17.2071C18.9024 16.8166 18.9024 16.1834 19.2929 15.7929C19.6834 15.4024 20.3166 15.4024 20.7071 15.7929L22.7071 17.7929C23.0976 18.1834 23.0976 18.8166 22.7071 19.2071L20.7071 21.2071C20.3166 21.5976 19.6834 21.5976 19.2929 21.2071C18.9024 20.8166 18.9024 20.1834 19.2929 19.7929L19.5858 19.5L18.5 19.5C15.7215 19.5 13.296 17.9892 12 15.7442C10.704 17.9892 8.27846 19.5 5.5 19.5H2C1.44772 19.5 1 19.0523 1 18.5C1 17.9478 1.44772 17.5 2 17.5H5.5C8.53757 17.5 11 15.0376 11 12C11 8.96248 8.53757 6.50005 5.5 6.50005H2C1.44772 6.50005 1 6.05233 1 5.50005C1 4.94777 1.44772 4.50005 2 4.50005H5.5C8.27846 4.50005 10.704 6.01091 12 8.25588C13.296 6.01091 15.7215 4.50005 18.5 4.50005L19.5858 4.50003L19.2929 4.20711C18.9024 3.81658 18.9024 3.18342 19.2929 2.79289Z" fill="currentColor"/>
</svg>
