<svg width="41" height="40" viewBox="0 0 41 40" fill="none" xmlns="http://www.w3.org/2000/svg">
<path fill-rule="evenodd" clip-rule="evenodd" d="M6.52486 5.85785C10.1422 2.24057 15.1447 0 20.667 0C26.1893 0 31.1918 2.24057 34.8091 5.85786C38.4264 9.47519 40.667 14.4777 40.667 20C40.667 25.5223 38.4264 30.5248 34.8091 34.1421C31.1918 37.7594 26.1893 40 20.667 40C15.1447 40 10.1422 37.7594 6.52486 34.1421C2.90758 30.5248 0.666992 25.5223 0.666992 20C0.666992 14.4777 2.90759 9.47519 6.52486 5.85785ZM31.0436 15.8311C31.7536 15.1211 31.7536 13.9699 31.0436 13.2598C30.3335 12.5498 29.1823 12.5498 28.4723 13.2598L18.8488 22.8832L14.6799 18.7144C13.9699 18.0043 12.8187 18.0043 12.1086 18.7144C11.3986 19.4244 11.3986 20.5756 12.1086 21.2857L17.5632 26.7402C18.2732 27.4502 19.4244 27.4502 20.1345 26.7402L31.0436 15.8311Z" fill="#ED993F"/>
</svg>
