<svg width="30" height="30" viewBox="0 0 30 30" fill="none" xmlns="http://www.w3.org/2000/svg">
<path fill-rule="evenodd" clip-rule="evenodd" d="M14.1161 1.61612C14.6043 1.12796 15.3957 1.12796 15.8839 1.61612L19.2678 5H23.75C24.4404 5 25 5.55964 25 6.25V10.7322L28.3839 14.1161C28.872 14.6043 28.872 15.3957 28.3839 15.8839L25 19.2678V23.75C25 24.4404 24.4404 25 23.75 25H19.2678L15.8839 28.3839C15.3957 28.872 14.6043 28.872 14.1161 28.3839L10.7322 25H6.25C5.55964 25 5 24.4404 5 23.75V19.2678L1.61612 15.8839C1.12796 15.3957 1.12796 14.6043 1.61612 14.1161L5 10.7322V6.25C5 5.55964 5.55964 5 6.25 5H10.7322L14.1161 1.61612ZM15 4.26777L12.1339 7.13388C11.8995 7.3683 11.5815 7.5 11.25 7.5H7.5V11.25C7.5 11.5815 7.3683 11.8995 7.13388 12.1339L4.26777 15L7.13388 17.8661C7.3683 18.1005 7.5 18.4185 7.5 18.75V22.5H11.25C11.5815 22.5 11.8995 22.6317 12.1339 22.8661L15 25.7322L17.8661 22.8661C18.1005 22.6317 18.4185 22.5 18.75 22.5H22.5V18.75C22.5 18.4185 22.6317 18.1005 22.8661 17.8661L25.7322 15L22.8661 12.1339C22.6317 11.8995 22.5 11.5815 22.5 11.25V7.5H18.75C18.4185 7.5 18.1005 7.3683 17.8661 7.13388L15 4.26777ZM15 12.5C13.6193 12.5 12.5 13.6193 12.5 15C12.5 16.3807 13.6193 17.5 15 17.5C16.3807 17.5 17.5 16.3807 17.5 15C17.5 13.6193 16.3807 12.5 15 12.5ZM10 15C10 12.2386 12.2386 10 15 10C17.7614 10 20 12.2386 20 15C20 17.7614 17.7614 20 15 20C12.2386 20 10 17.7614 10 15Z" fill="currentColor"/>
</svg>
