<svg width="26" height="24" viewBox="0 0 26 24" fill="none" xmlns="http://www.w3.org/2000/svg">
<path fill-rule="evenodd" clip-rule="evenodd" d="M13.0055 0.124924C13.6959 0.124924 14.2555 0.684568 14.2555 1.37492V3.93837C15.672 4.08154 17.0128 4.45987 18.2399 4.99966L19.2496 3.59076C19.6518 3.02964 20.4327 2.90077 20.9938 3.30293C21.5549 3.70509 21.6838 4.48598 21.2816 5.04711L20.445 6.2145C20.9138 6.52958 21.356 6.86678 21.7681 7.21983C23.9403 9.08048 25.5 11.5837 25.5 13.8749C25.5 16.1661 23.9403 18.6694 21.7681 20.53C19.547 22.4327 16.4549 23.8749 13 23.8749C9.54482 23.8749 6.45278 22.4316 4.23174 20.5286C2.05988 18.6677 0.5 16.1645 0.5 13.8749C0.5 11.5854 2.05988 9.08219 4.23174 7.22129C4.79248 6.74084 5.40875 6.28968 6.07235 5.88366L5.27379 4.7694C4.87165 4.20827 5.00053 3.42738 5.56166 3.02523C6.12279 2.62308 6.90368 2.75196 7.30583 3.3131L8.3425 4.7596C9.41057 4.34658 10.5559 4.05755 11.7555 3.9373V1.37492C11.7555 0.684568 12.3151 0.124924 13.0055 0.124924ZM13 6.37494C10.242 6.37494 7.70903 7.53405 5.85837 9.11974C3.95852 10.7476 3 12.6194 3 13.8749C3 15.1305 3.95852 17.0023 5.85837 18.6301C7.70903 20.2158 10.242 21.3749 13 21.3749C15.7583 21.3749 18.2912 20.2165 20.1418 18.6314C22.0413 17.0042 23 15.1324 23 13.8749C23 12.6174 22.0413 10.7456 20.1418 9.11848C18.2912 7.53333 15.7583 6.37494 13 6.37494ZM8 13.8749C8 11.1135 10.2386 8.87494 13 8.87494C15.7614 8.87494 18 11.1135 18 13.8749C18 16.6364 15.7614 18.8749 13 18.8749C10.2386 18.8749 8 16.6364 8 13.8749ZM13 11.3749C11.6193 11.3749 10.5 12.4942 10.5 13.8749C10.5 15.2556 11.6193 16.3749 13 16.3749C14.3807 16.3749 15.5 15.2556 15.5 13.8749C15.5 12.4942 14.3807 11.3749 13 11.3749Z" fill="currentColor"/>
</svg>
