<svg width="30" height="30" viewBox="0 0 30 30" fill="none" xmlns="http://www.w3.org/2000/svg">
<path d="M7.05684 10.1137C8.74509 10.1137 10.1137 8.74509 10.1137 7.05684C10.1137 5.36859 8.74509 4 7.05684 4C5.36859 4 4 5.36859 4 7.05684C4 8.74509 5.36859 10.1137 7.05684 10.1137Z" fill="currentColor"/>
<path d="M15 10.1137C16.6882 10.1137 18.0568 8.74509 18.0568 7.05684C18.0568 5.36859 16.6882 4 15 4C13.3117 4 11.9431 5.36859 11.9431 7.05684C11.9431 8.74509 13.3117 10.1137 15 10.1137Z" fill="currentColor"/>
<path d="M22.9432 10.1137C24.6314 10.1137 26 8.74509 26 7.05684C26 5.36859 24.6314 4 22.9432 4C21.2549 4 19.8863 5.36859 19.8863 7.05684C19.8863 8.74509 21.2549 10.1137 22.9432 10.1137Z" fill="currentColor"/>
<path d="M7.05684 18.0568C8.74509 18.0568 10.1137 16.6882 10.1137 15C10.1137 13.3117 8.74509 11.9431 7.05684 11.9431C5.36859 11.9431 4 13.3117 4 15C4 16.6882 5.36859 18.0568 7.05684 18.0568Z" fill="currentColor"/>
<path d="M15 18.0568C16.6882 18.0568 18.0568 16.6882 18.0568 15C18.0568 13.3117 16.6882 11.9431 15 11.9431C13.3117 11.9431 11.9431 13.3117 11.9431 15C11.9431 16.6882 13.3117 18.0568 15 18.0568Z" fill="currentColor"/>
<path d="M22.9432 18.0568C24.6314 18.0568 26 16.6882 26 15C26 13.3117 24.6314 11.9431 22.9432 11.9431C21.2549 11.9431 19.8863 13.3117 19.8863 15C19.8863 16.6882 21.2549 18.0568 22.9432 18.0568Z" fill="currentColor"/>
<path d="M7.05684 26C8.74509 26 10.1137 24.6314 10.1137 22.9432C10.1137 21.2549 8.74509 19.8864 7.05684 19.8864C5.36859 19.8864 4 21.2549 4 22.9432C4 24.6314 5.36859 26 7.05684 26Z" fill="currentColor"/>
<path d="M15 26C16.6882 26 18.0568 24.6314 18.0568 22.9432C18.0568 21.2549 16.6882 19.8864 15 19.8864C13.3117 19.8864 11.9431 21.2549 11.9431 22.9432C11.9431 24.6314 13.3117 26 15 26Z" fill="currentColor"/>
<path d="M22.9432 26C24.6314 26 26 24.6314 26 22.9432C26 21.2549 24.6314 19.8864 22.9432 19.8864C21.2549 19.8864 19.8863 21.2549 19.8863 22.9432C19.8863 24.6314 21.2549 26 22.9432 26Z" fill="currentColor"/>
</svg>
